<svg xmlns="http://www.w3.org/2000/svg" viewBox="0 0 600 650" width="100%" height="100%">
  <rect width="100%" height="100%" fill="#FAF7F0"/>

  <g transform="translate(0, 10)">
    <path d="M 75,60 
             L 525,60 
             L 525,350 
             A 225,225 0 0,1 300,575 
             A 225,225 0 0,1 75,350 
             Z" 
          fill="none" stroke="#784E27" stroke-width="5" stroke-linejoin="round"/>

    <path d="M 87,72 
             L 513,72 
             L 513,350 
             A 213,213 0 0,1 300,561 
             A 213,213 0 0,1 87,350 
             Z" 
          fill="none" stroke="#784E27" stroke-width="1.5" stroke-linejoin="round"/>

    <text x="300" y="135" 
          font-family="'Times New Roman', Times, serif" 
          font-size="22" 
          fill="#784E27" 
          text-anchor="middle" 
          letter-spacing="9">JAMÓN IBÉRICO</text>

    <line x1="225" y1="230" x2="275" y2="230" stroke="#784E27" stroke-width="1.5" />
    <circle cx="300" cy="230" r="3" fill="#784E27" />
    <line x1="325" y1="230" x2="375" y2="230" stroke="#784E27" stroke-width="1.5" />

    <text x="300" y="365" 
          font-family="'Times New Roman', Times, serif" 
          font-size="120" 
          font-weight="normal"
          fill="#784E27" 
          text-anchor="middle"
          letter-spacing="2">III</text>

    <line x1="225" y1="395" x2="275" y2="395" stroke="#784E27" stroke-width="1.5" />
    <circle cx="300" cy="395" r="3" fill="#784E27" />
    <line x1="325" y1="395" x2="375" y2="395" stroke="#784E27" stroke-width="1.5" />

    <text x="300" y="435" 
          font-family="'Times New Roman', Times, serif" 
          font-size="22" 
          fill="#784E27" 
          text-anchor="middle" 
          letter-spacing="12">BRONCE</text>

    <circle cx="300" cy="485" r="4" fill="#784E27" />
  </g>
</svg>
