<svg xmlns="http://www.w3.org/2000/svg" width="278" height="252" viewBox="0 0 278 252">
<g>
<path d="M 217.00 227.01 C212.58,228.25 62.70,228.17 58.50,226.94 C54.23,225.69 48.28,220.46 45.97,215.94 C44.06,212.21 44.00,209.75 44.00,140.50 C44.00,71.71 44.08,68.77 45.93,65.13 C48.22,60.64 53.33,56.52 59.23,54.38 C62.43,53.23 66.52,52.92 75.50,53.17 L 87.50 53.50 L 88.00 43.21 C88.51,32.80 89.45,30.47 92.67,31.70 C94.46,32.39 94.95,34.88 95.25,44.87 L 95.50 53.24 L 137.50 53.21 C160.60,53.20 180.07,53.14 180.76,53.09 C181.70,53.02 181.97,50.56 181.83,43.58 C181.61,33.18 182.70,30.23 186.07,32.04 C187.66,32.89 187.97,34.48 188.22,43.00 L 188.50 52.97 L 202.00 53.36 C217.06,53.79 220.57,54.80 225.64,60.17 C226.80,61.40 227.75,62.28 228.53,63.29 C232.02,67.83 232.02,75.06 232.00,129.22 C232.00,132.92 232.00,136.84 232.00,140.99 C232.00,209.76 231.94,212.21 230.03,215.94 C227.61,220.68 221.69,225.71 217.00,227.01 ZM 63.00 221.85 C65.48,222.31 100.59,222.59 141.03,222.48 C144.89,222.47 148.55,222.46 152.04,222.45 C209.94,222.31 217.20,222.29 221.05,218.66 C221.84,217.92 222.48,217.03 223.38,215.96 L 226.00 212.85 L 226.14 192.17 C226.38,156.33 226.10,101.76 225.67,101.34 C225.25,100.92 50.82,100.84 50.42,101.26 C50.29,101.39 50.03,126.33 49.84,156.68 C49.50,211.11 49.53,211.89 51.56,214.61 C54.70,218.82 58.05,220.94 63.00,221.85 ZM 50.00 82.23 L 50.00 95.00 L 225.74 95.00 L 226.20 84.55 C226.83,70.46 226.41,68.41 222.02,64.02 C217.54,59.54 215.18,59.00 199.88,59.00 L 188.00 59.00 L 188.00 66.93 C188.00,73.04 187.61,75.24 186.31,76.55 C184.72,78.14 184.51,78.11 182.81,76.01 C181.43,74.31 181.00,72.03 181.00,66.39 L 181.00 59.00 L 95.00 59.00 L 95.00 66.80 C95.00,74.78 94.11,77.00 90.91,77.00 C88.55,77.00 88.00,74.98 88.00,66.42 L 88.00 59.00 L 74.90 59.00 C59.87,59.00 56.38,60.07 52.44,65.88 C50.17,69.22 50.00,70.35 50.00,82.23 ZM 111.81 194.96 C107.44,199.03 101.00,196.37 101.00,190.50 C101.00,184.40 107.14,182.05 111.55,186.45 C114.58,189.49 114.67,192.30 111.81,194.96 ZM 139.69 194.83 C136.67,197.66 132.56,197.64 130.56,194.78 C128.43,191.75 128.60,188.40 131.00,186.00 C133.68,183.32 136.57,183.48 139.55,186.45 C142.62,189.53 142.66,192.03 139.69,194.83 ZM 84.17 195.35 C79.98,199.14 74.00,196.13 74.00,190.23 C74.00,184.85 80.83,181.95 84.35,185.83 C86.54,188.26 86.45,193.28 84.17,195.35 ZM 168.95 194.56 C167.68,195.90 165.68,197.00 164.50,197.00 C161.23,197.00 157.62,192.65 158.38,189.63 C159.69,184.40 165.08,182.22 168.43,185.57 C171.27,188.41 171.47,191.87 168.95,194.56 ZM 110.04 138.98 C107.37,140.41 106.63,140.29 103.58,137.88 C98.22,133.67 102.49,125.65 109.19,127.33 C114.46,128.66 115.02,136.31 110.04,138.98 ZM 84.42 166.09 C83.47,167.14 81.48,168.00 80.00,168.00 C73.80,168.00 71.74,159.10 77.23,156.04 C79.70,154.66 80.22,154.67 82.73,156.18 C86.15,158.25 87.00,163.24 84.42,166.09 ZM 198.07 166.96 C190.46,171.04 184.00,161.99 190.97,157.02 C193.75,155.04 194.12,155.01 196.97,156.48 C199.57,157.83 200.00,158.62 200.00,161.99 C200.00,164.86 199.48,166.21 198.07,166.96 ZM 168.55 137.55 C165.46,140.63 163.55,140.64 160.50,137.59 C158.42,135.51 158.22,134.73 159.03,131.91 C159.54,130.11 160.53,128.28 161.23,127.84 C164.90,125.51 171.00,128.76 171.00,133.05 C171.00,134.17 169.90,136.20 168.55,137.55 ZM 198.75 137.72 C195.48,140.25 192.05,139.70 189.25,136.18 C185.03,130.89 191.77,124.66 198.07,128.04 C200.32,129.24 200.81,136.13 198.75,137.72 ZM 110.69 167.21 C107.13,169.48 101.00,166.65 101.00,162.75 C101.00,157.76 105.93,154.32 109.97,156.48 C111.31,157.20 112.70,158.62 113.06,159.64 C113.82,161.75 112.46,166.09 110.69,167.21 ZM 139.43 166.43 C135.95,169.91 129.00,166.74 129.00,161.67 C129.00,159.11 132.77,155.00 135.13,155.00 C139.77,155.00 142.80,163.06 139.43,166.43 ZM 169.64 165.42 C166.45,170.30 158.98,168.02 159.02,162.18 C159.03,158.97 159.81,157.66 162.56,156.21 C167.55,153.59 172.87,160.50 169.64,165.42 ZM 139.43 137.43 C135.90,140.96 129.00,138.15 129.00,133.17 C129.00,130.28 132.41,127.00 135.43,127.00 C140.38,127.00 143.01,133.85 139.43,137.43 Z" fill="rgb(195,135,56)"/>
<path d="M 0.00 126.00 L 0.00 0.00 L 139.00 0.00 L 278.00 0.00 L 278.00 126.00 L 278.00 252.00 L 139.00 252.00 L 0.00 252.00 L 0.00 126.00 ZM 217.00 227.01 C221.69,225.71 227.61,220.68 230.03,215.94 C231.94,212.21 232.00,209.76 232.00,140.99 C232.00,62.55 232.38,67.32 225.64,60.17 C220.57,54.80 217.06,53.79 202.00,53.36 L 188.50 52.97 L 188.22 43.00 C187.97,34.48 187.66,32.89 186.07,32.04 C182.70,30.23 181.61,33.18 181.83,43.58 C181.97,50.56 181.70,53.02 180.76,53.09 C180.07,53.14 160.60,53.20 137.50,53.21 L 95.50 53.24 L 95.25 44.87 C94.95,34.88 94.46,32.39 92.67,31.70 C89.45,30.47 88.51,32.80 88.00,43.21 L 87.50 53.50 L 75.50 53.17 C66.52,52.92 62.43,53.23 59.23,54.38 C53.33,56.52 48.22,60.64 45.93,65.13 C44.08,68.77 44.00,71.71 44.00,140.50 C44.00,209.75 44.06,212.21 45.97,215.94 C48.28,220.46 54.23,225.69 58.50,226.94 C62.70,228.17 212.58,228.25 217.00,227.01 ZM 63.00 221.85 C58.05,220.94 54.70,218.82 51.56,214.61 C49.53,211.89 49.50,211.11 49.84,156.68 C50.03,126.33 50.29,101.39 50.42,101.26 C50.82,100.84 225.25,100.92 225.67,101.34 C226.10,101.76 226.38,156.33 226.14,192.17 L 226.00 212.85 L 223.38 215.96 C217.79,222.60 222.11,222.26 141.03,222.48 C100.59,222.59 65.48,222.31 63.00,221.85 ZM 84.17 195.35 C86.45,193.28 86.54,188.26 84.35,185.83 C80.83,181.95 74.00,184.85 74.00,190.23 C74.00,196.13 79.98,199.14 84.17,195.35 ZM 111.81 194.96 C114.67,192.30 114.58,189.49 111.55,186.45 C107.14,182.05 101.00,184.40 101.00,190.50 C101.00,196.37 107.44,199.03 111.81,194.96 ZM 139.69 194.83 C142.66,192.03 142.62,189.53 139.55,186.45 C136.57,183.48 133.68,183.32 131.00,186.00 C128.60,188.40 128.43,191.75 130.56,194.78 C132.56,197.64 136.67,197.66 139.69,194.83 ZM 168.95 194.56 C171.47,191.87 171.27,188.41 168.43,185.57 C165.08,182.22 159.69,184.40 158.38,189.63 C157.62,192.65 161.23,197.00 164.50,197.00 C165.68,197.00 167.68,195.90 168.95,194.56 ZM 84.42 166.09 C87.00,163.24 86.15,158.25 82.73,156.18 C80.22,154.67 79.70,154.66 77.23,156.04 C71.74,159.10 73.80,168.00 80.00,168.00 C81.48,168.00 83.47,167.14 84.42,166.09 ZM 110.69 167.21 C112.46,166.09 113.82,161.75 113.06,159.64 C112.70,158.62 111.31,157.20 109.97,156.48 C105.93,154.32 101.00,157.76 101.00,162.75 C101.00,166.65 107.13,169.48 110.69,167.21 ZM 139.43 166.43 C142.80,163.06 139.77,155.00 135.13,155.00 C132.77,155.00 129.00,159.11 129.00,161.67 C129.00,166.74 135.95,169.91 139.43,166.43 ZM 169.64 165.42 C172.87,160.50 167.55,153.59 162.56,156.21 C159.81,157.66 159.03,158.97 159.02,162.18 C158.98,168.02 166.45,170.30 169.64,165.42 ZM 198.07 166.96 C199.48,166.21 200.00,164.86 200.00,161.99 C200.00,158.62 199.57,157.83 196.97,156.48 C194.12,155.01 193.75,155.04 190.97,157.02 C184.00,161.99 190.46,171.04 198.07,166.96 ZM 110.04 138.98 C115.02,136.31 114.46,128.66 109.19,127.33 C102.49,125.65 98.22,133.67 103.58,137.88 C106.63,140.29 107.37,140.41 110.04,138.98 ZM 168.55 137.55 C169.90,136.20 171.00,134.17 171.00,133.05 C171.00,128.76 164.90,125.51 161.23,127.84 C160.53,128.28 159.54,130.11 159.03,131.91 C158.22,134.73 158.42,135.51 160.50,137.59 C163.55,140.64 165.46,140.63 168.55,137.55 ZM 198.75 137.72 C200.81,136.13 200.32,129.24 198.07,128.04 C191.77,124.66 185.03,130.89 189.25,136.18 C192.05,139.70 195.48,140.25 198.75,137.72 ZM 139.43 137.43 C143.01,133.85 140.38,127.00 135.43,127.00 C132.41,127.00 129.00,130.28 129.00,133.17 C129.00,138.15 135.90,140.96 139.43,137.43 ZM 50.00 82.23 C50.00,70.35 50.17,69.22 52.44,65.88 C56.38,60.07 59.87,59.00 74.90,59.00 L 88.00 59.00 L 88.00 66.42 C88.00,74.98 88.55,77.00 90.91,77.00 C94.11,77.00 95.00,74.78 95.00,66.80 L 95.00 59.00 L 138.00 59.00 L 181.00 59.00 L 181.00 66.39 C181.00,72.03 181.43,74.31 182.81,76.01 C184.51,78.11 184.72,78.14 186.31,76.55 C187.61,75.24 188.00,73.04 188.00,66.93 L 188.00 59.00 L 199.88 59.00 C215.18,59.00 217.54,59.54 222.02,64.02 C226.41,68.41 226.83,70.46 226.20,84.55 L 225.74 95.00 L 137.87 95.00 L 50.00 95.00 L 50.00 82.23 Z" fill="rgb(253,252,251)"/>
</g>
</svg>